<svg id="Capa_1" enable-background="new 0 0 512 512" height="512" viewBox="0 0 512 512" width="512" xmlns="http://www.w3.org/2000/svg"><g><path d="m454.876 103.433c16.386 0 29.716-13.331 29.716-29.716s-13.33-29.716-29.716-29.716-29.716 13.331-29.716 29.716c0 6.234 1.934 12.023 5.227 16.807l-115.932 133.777 63.921-165.067c1.112.127 2.241.199 3.387.199 16.386 0 29.716-13.331 29.716-29.716 0-16.386-13.33-29.717-29.715-29.717s-29.717 13.331-29.717 29.716c0 9.904 4.875 18.685 12.346 24.088l-62.469 161.317c-81.371-67.295-206.219-44.735-257.067 54.937-54.931 111.778 26.57 241.919 150.351 241.919 30.208 0 60.038-8.262 86.084-23.856 19.233 15.079 43.325 23.879 69.145 23.879 62.023 0 112.267-50.505 112.267-112.267 0-27.667-10.323-53.679-27.197-73.257-2.704-3.138-7.438-3.488-10.577-.785-3.138 2.704-3.489 7.44-.784 10.578 2.883 3.345 5.517 6.868 7.898 10.539-22.786 15.188-48.945 23.728-76.382 24.935 5.002-23 16.173-44.176 32.695-61.587 3.54 1.497 6.998 3.195 10.343 5.111 3.594 2.058 8.177.813 10.235-2.781s.813-8.177-2.78-10.235c-16.01-9.169-34.428-14.335-53.276-14.744-6.774-18.757-16.757-35.918-29.281-50.851l118.121-136.303c3.969 1.968 8.434 3.08 13.157 3.08zm-73.112-88.433c8.114 0 14.716 6.602 14.716 14.716s-6.602 14.716-14.716 14.716c-8.115 0-14.717-6.602-14.717-14.716s6.601-14.716 14.717-14.716zm-85.581 214.945-10.809 27.913-48.827 56.343c-9.111-1.435-18.156-3.414-27.103-5.931 18.375-34.781 46.428-63.373 81.598-82.664 1.744 1.411 3.461 2.854 5.141 4.339zm-54.968 143.703c-17.442-1.056-34.799-4.09-51.715-9.044 2.918-14.746 7.359-28.9 13.346-42.625 18.859 5.516 38.362 8.837 58.232 9.771-9.538 12.493-16.265 26.732-19.863 41.898zm1.41 57.419c-3.118.066-6.235.066-9.351.006l5.891-16.409c.33 2.473.738 4.921 1.227 7.341.032.197.073.392.12.587.595 2.866 1.303 5.692 2.113 8.475zm-9.843-43.018-15.148 42.197c-10.343-.9-20.638-2.495-30.83-4.779-1.071-9.884-1.404-19.844-.994-29.816l11.628-13.418c11.655 2.789 23.469 4.732 35.344 5.816zm20.487 7.423c5.252 3.73 10.718 7.152 16.359 10.241.33 7.901 1.3 15.73 2.897 23.409-6.23-3.684-12.193-7.825-17.85-12.383-1.208-6.809-1.731-13.739-1.406-21.267zm16.661-6.945c-4.987-3.087-9.8-6.464-14.399-10.115 1.307-5.822 3.136-11.449 5.438-16.828 3.896 2.452 7.896 4.743 11.976 6.859-1.466 6.596-2.485 13.305-3.015 20.084zm-1.983-40.272c6.385-10.195 14.603-19.131 24.194-26.334-6.287 9.933-11.351 20.594-15.084 31.722-3.096-1.69-6.138-3.485-9.11-5.388zm-5.4-31.448c-2.667-.116-5.331-.274-7.991-.482l14.784-17.06zm-99.229-121.821c-20.72 14.607-39.236 33.08-54.334 55.2-5.953-5.848-11.606-12.033-16.906-18.491 19.869-18.124 44.621-30.991 71.24-36.709zm-81.854 47.41c6.045 7.273 12.509 14.218 19.326 20.743-6.695 11.489-12.323 23.604-16.855 36.28-8.252-8.901-15.817-18.459-22.605-28.551 5.613-10.275 12.365-19.815 20.134-28.472zm-27.543 44.081c7.529 10.381 15.865 20.159 24.879 29.24-4.137 15.114-6.615 30.44-7.438 45.863-10.336-10.489-19.663-21.965-27.879-34.261 1.526-13.56 4.881-27.205 10.438-40.842zm-11.203 65.304c8.641 10.931 18.178 21.115 28.519 30.44.988 23.248 5.652 46.08 13.859 67.786-25.244-26.383-40.536-61.313-42.378-98.226zm122.908 142.294c-27.665-45.37-36.463-98.642-24.74-150.385.915-4.04-1.617-8.057-5.657-8.972-4.036-.916-8.056 1.617-8.972 5.657-11.463 50.592-4.66 102.538 19.06 148.2-11.963-4.129-23.107-9.615-33.303-16.245-26.896-48.024-33.494-104.822-17.012-158.668 16.506-53.93 53.842-97.291 102.967-121.99 12.255.243 24.545 1.958 36.647 5.206-43.573 23.697-77.583 61.215-96.796 107.267-1.595 3.823.211 8.215 4.034 9.81 3.824 1.595 8.215-.213 9.81-4.034 19.71-47.246 56.156-84.85 102.818-106.218 8.123 3.429 15.885 7.534 23.214 12.252-64.228 37.918-101.983 103.852-106.593 173.765l-22.695 26.188c-2.713 3.13-2.374 7.867.756 10.58 3.129 2.711 7.866 2.375 10.58-.756l11.08-12.785c1.21 28.842 8.221 57.303 20.899 83.981-8.717-.2-17.446-1.143-26.097-2.853zm42.566 2.337c-9.073-17.63-15.424-36.171-19.029-55.137 7.707 1.542 15.462 2.716 23.249 3.52l-7.317 20.384c-1.399 3.899.626 8.194 4.524 9.593 3.907 1.4 8.196-.633 9.593-4.525l8.738-24.34c6.202.246 12.016.336 20.156-.006 5.367 11.5 11.792 21.659 21.451 31.694-19.087 10.654-40.006 16.986-61.365 18.817zm53.862-56.091c5.212 3.225 10.604 6.148 16.144 8.774 3.602 9.948 8.274 19.496 13.942 28.452-12.874-9.67-23.276-22.456-30.086-37.226zm126.296 48.984c-7.435-7.836-13.787-16.434-18.98-25.619 25.23-3.156 49.505-12.172 70.693-26.168-9.84 23.254-28.476 41.914-51.713 51.787zm59.353-89.572c0 4.769-.351 9.456-1.018 14.043-23.656 20.285-53.321 32.788-84.286 35.574-3.119-7.579-5.519-15.456-7.151-23.553 33.402-1.282 65.516-12.632 92.217-32.491.143 2.135.238 4.276.238 6.427zm-8.489-39.686c2.344 5.245 4.219 10.688 5.604 16.27-25.833 21.445-58.081 33.598-91.682 34.545-.651-7.764-.659-15.692.153-24.029 30.828-.799 60.281-9.993 85.925-26.786zm-77.736-56.94c3.796.433 7.56 1.08 11.268 1.951-46.854 54.326-46.792 135.103.003 189.355-3.678.867-7.437 1.52-11.261 1.955-57.251-51.791-57.125-141.581-.01-193.261zm-20.977 193.389c-5.567-.567-10.995-1.61-16.247-3.08-52.998-51.171-53.2-135.997-.001-187.366 5.252-1.47 10.68-2.513 16.248-3.08-49.208 55.089-49.24 138.4 0 193.526zm-3.374-208.248c-20.174 2.381-39.911 10.314-56.581 23.618l17.875-46.159 15.221-17.564c9.73 11.98 17.693 25.475 23.485 40.105zm117.749-229.247c8.114 0 14.716 6.602 14.716 14.716 0 8.115-6.602 14.716-14.716 14.716s-14.716-6.602-14.716-14.716 6.602-14.716 14.716-14.716z"/></g></svg>